<?xml version="1.0" encoding="utf-8"?>
<!-- Generator: Adobe Illustrator 18.1.0, SVG Export Plug-In . SVG Version: 6.00 Build 0)  -->
<svg version="1.1" id="Layer_1" xmlns="http://www.w3.org/2000/svg" xmlns:xlink="http://www.w3.org/1999/xlink" x="0px" y="0px"
	 viewBox="0 0 770 700" enable-background="new 0 0 770 700" xml:space="preserve">
<rect x="-1.3" y="1.2" fill="#E46A5D" width="769.6" height="700.6"/>
<g>
	<path fill="#55BC75" d="M493,257.4v-1.8l-2.2,2C491.6,257.5,492,257.4,493,257.4z"/>
	<path fill="#7F47DD" d="M260.6,505.2l5.3-14.2l5.4,1.9l6.2-19.3c-6.5-11.7-10.8-22.9-10.8-22.9L254.4,404H247v-13h4l-1.3-4H247v-13
		h-0.6l-5.5-22.7l6.2-7.3v-6h3.8l2.6-3H247v-13h16.5l10.5-12.2V306h2.4l4-5H274v-13h16.6l10.4-12.4V272h2.7l3-4H301v-12h11v-4h-11
		v-13h11v-4h-11v-12h11v-4h-11v-13h11v-4h-11v-12h11v-4h-11v-14h11v-10.2c0-7.2,5-13.8,12.2-13.8h152c7.2,0,12.8,6.6,12.8,13.8v39.3
		l10.2-9.3c5-4.3,13.8-2.9,21.8,2.7V190h19v12h-11.8c0.8,2,1.6,3,2.2,4h9.6v13h-8.4c-0.6,1-1.4,2.7-2.5,3.7l-0.2,0.3H540v12h-19
		v-5.6l-10.1,9.6h1.1v13h-15l-4.1,4H512v10.3c4,5.2,6.1,11.5,4.9,17c-0.1,1.5-0.4,2.9-1.3,4.2l-3.7,6.6v6.9h-4.3l-1.5,2.6
		c4.9,0.7,10.8,3.4,14.8,7.9V306h19v13h-13.5c0.6,1,1.1,2,1.5,3h12v13h-11c-0.2,1-0.6,1.5-1,2.2l-0.5,0.8H540v13h-11.4
		c2.6,1,5.2,3,7.6,5h3.9v3.4c3,3.8,5.4,7.9,6.1,11.7c1.5,3.5,1.5,6.9-0.3,9.8l-5.8,10H540v13h-7.2L514,436.7
		c-0.2,0.8-0.4,1.6-0.8,2.4c0,0-34.4,90.1-105.7,102.3l0,0.3l6.6,2.3l-4,15l5,1.8l-7.5,35.7c118.4-9.7,216.5-91.9,249.5-202V391h0.2
		c0.5-1,0.9-3,1.3-4H657v-13h4.6c0.4-2,0.8-4,1.2-6H657v-12h8c0.2-2,0.4-3,0.6-5H657v-13h10.1c0.1-1,0.2-2,0.3-3H657v-13h11
		c0-1,0.1-2,0.1-3H657v-13h11.1c0-2-0.1-3-0.2-5H657v-13h10.1c-0.1-1-0.2-2-0.3-3H657v-13h8.2c-0.2-1-0.4-3-0.6-4H657v-12h5.4
		c-0.3-2-0.5-3-0.8-4H657v-13h1.4c-2.9-11-5.4-21.8-9.4-32.2V219h-20v-13h18.4c-0.5-1-1-2-1.5-4H629v-12h11.1c-0.6-2-1.2-3-1.9-4
		H629v-14h2.4C582.5,86,489.8,28.1,383.5,28.1C258,28.1,151.4,109,113.6,223H129v12h-19.4c-3.6,13-5.6,25.6-7.6,38.9V285h-1.7
		c-0.1,1-0.2,2-0.3,3h2.1v13h-2.9c-0.1,2-0.1,3-0.2,5h3.1v13h-3.1c0,1,0.1,2,0.1,3h3v13h-2.3c0.1,1,0.2,2,0.3,3h2v13h-0.6
		c1.8,14,4.7,27,8.4,40H129v13h-15.2c21.3,63,64.1,116.2,119.7,150.7l19.4-52.3L260.6,505.2z M540,301h-19v-13h19V301z M540,285h-19
		v-13h19V285z M540,268h-19v-12h19V268z M540,252h-19v-13h19V252z M629,223h20v12h-20V223z M629,239h20v13h-20V239z M629,256h20v12
		h-20V256z M629,272h20v13h-20V272z M629,288h20v13h-20V288z M629,306h20v13h-20V306z M629,322h20v13h-20V322z M629,338h20v13h-20
		V338z M629,356h20v12h-20V356z M629,374h20v13h-20V374z M629,391h20v13h-20V391z M602,223h19v12h-19V223z M602,239h19v13h-19V239z
		 M602,256h19v12h-19V256z M602,272h19v13h-19V272z M602,288h19v13h-19V288z M602,306h19v13h-19V306z M602,322h19v13h-19V322z
		 M602,338h19v13h-19V338z M602,356h19v12h-19V356z M602,374h19v13h-19V374z M602,391h19v13h-19V391z M574,239h20v13h-20V239z
		 M574,256h20v12h-20V256z M574,272h20v13h-20V272z M574,288h20v13h-20V288z M574,306h20v13h-20V306z M574,322h20v13h-20V322z
		 M574,338h20v13h-20V338z M574,356h20v12h-20V356z M574,374h20v13h-20V374z M574,391h20v13h-20V391z M547,256h19v12h-19V256z
		 M547,272h19v13h-19V272z M547,288h19v13h-19V288z M547,306h19v13h-19V306z M547,322h19v13h-19V322z M547,338h19v13h-19V338z
		 M547,356h19v12h-19V356z M547,374h19v13h-19V374z M547,391h19v13h-19V391z M409.5,131.6c-2.2-5-7.9-7.4-13-5.4
		c-2.5,0.9-4.4,2.7-5.5,4.9l-6.7-6.7c2.2-2.9,5.3-5.3,9-6.7c8.7-3.3,18.2-0.3,23.5,6.7L409.5,131.6z M426.5,114.6
		c-9.1-10.6-24.2-15-38.1-9.7c-5.6,2.1-10.3,5.5-13.9,9.7l-9.7-9.7c5-5.5,11.3-10,18.7-12.8c19-7.2,39.8-1.5,52.6,12.8L426.5,114.6z
		 M373.9,66.5c29.4-11.2,61.5-2.6,81.7,19l-10.1,10.1c-16.6-17.2-42.4-23.8-66.1-14.8c-9.1,3.4-16.9,8.8-23.1,15.4l-10.8-10.8
		C353.1,77.3,362.7,70.7,373.9,66.5z M274,223h19v12h-19V223z M274,239h19v13h-19V239z M274,256h19v12h-19V256z M274,272h19v13h-19
		V272z M247,239h19v13h-19V239z M247,256h19v12h-19V256z M247,272h19v13h-19V272z M247,288h19v13h-19V288z M247,306h19v13h-19V306z
		 M129,387h-19v-13h19V387z M129,368h-19v-12h19V368z M129,351h-19v-13h19V351z M129,335h-19v-13h19V335z M129,319h-19v-13h19V319z
		 M129,301h-19v-13h19V301z M129,285h-19v-13h19V285z M129,268h-19v-12h19V268z M129,252h-19v-13h19V252z M156,404h-19v-13h19V404z
		 M156,387h-19v-13h19V387z M156,368h-19v-12h19V368z M156,351h-19v-13h19V351z M156,335h-19v-13h19V335z M156,319h-19v-13h19V319z
		 M156,301h-19v-13h19V301z M156,285h-19v-13h19V285z M156,268h-19v-12h19V268z M156,252h-19v-13h19V252z M156,235h-19v-12h19V235z
		 M156,219h-19v-13h19V219z M156,202h-19v-12h19V202z M156,186h-19v-14h19V186z M184,404h-19v-13h19V404z M184,387h-19v-13h19V387z
		 M184,368h-19v-12h19V368z M184,351h-19v-13h19V351z M184,335h-19v-13h19V335z M184,319h-19v-13h19V319z M184,301h-19v-13h19V301z
		 M184,285h-19v-13h19V285z M184,268h-19v-12h19V268z M184,252h-19v-13h19V252z M212,404h-19v-13h19V404z M212,387h-19v-13h19V387z
		 M212,368h-19v-12h19V368z M212,351h-19v-13h19V351z M212,335h-19v-13h19V335z M212,319h-19v-13h19V319z M212,301h-19v-13h19V301z
		 M212,285h-19v-13h19V285z M212,268h-19v-12h19V268z M212,252h-19v-13h19V252z M212,235h-19v-12h19V235z M212,219h-19v-13h19V219z
		 M212,202h-19v-12h19V202z M239,404h-20v-13h20V404z M239,387h-20v-13h20V387z M239,368h-20v-12h20V368z M239,351h-20v-13h20V351z
		 M239,335h-20v-13h20V335z M239,319h-20v-13h20V319z M239,301h-20v-13h20V301z M239,285h-20v-13h20V285z M239,268h-20v-12h20V268z"
		/>
	<rect x="165" y="272" fill="#67CE84" width="19" height="13"/>
	<rect x="165" y="239" fill="#67CE84" width="19" height="13"/>
	<rect x="165" y="256" fill="#67CE84" width="19" height="12"/>
	<rect x="193" y="272" fill="#67CE84" width="19" height="13"/>
	<rect x="193" y="239" fill="#67CE84" width="19" height="13"/>
	<rect x="193" y="256" fill="#67CE84" width="19" height="12"/>
	<rect x="193" y="223" fill="#67CE84" width="19" height="12"/>
	<rect x="193" y="206" fill="#67CE84" width="19" height="13"/>
	<rect x="193" y="190" fill="#67CE84" width="19" height="12"/>
	<rect x="137" y="272" fill="#67CE84" width="19" height="13"/>
	<rect x="137" y="239" fill="#67CE84" width="19" height="13"/>
	<rect x="137" y="256" fill="#67CE84" width="19" height="12"/>
	<rect x="137" y="223" fill="#67CE84" width="19" height="12"/>
	<rect x="137" y="206" fill="#67CE84" width="19" height="13"/>
	<rect x="137" y="190" fill="#67CE84" width="19" height="12"/>
	<rect x="137" y="172" fill="#67CE84" width="19" height="14"/>
	<rect x="110" y="272" fill="#67CE84" width="19" height="13"/>
	<rect x="110" y="239" fill="#67CE84" width="19" height="13"/>
	<rect x="110" y="256" fill="#67CE84" width="19" height="12"/>
	<path fill="#67CE84" d="M129,223h-15.4c-1.4,4-2.7,8-4,12H129V223z"/>
	<path fill="#67CE84" d="M102,273.9c-1,3.5-1.4,7.1-1.7,11.1h1.7V273.9z"/>
	<rect x="219" y="272" fill="#67CE84" width="20" height="13"/>
	<rect x="219" y="256" fill="#67CE84" width="20" height="12"/>
	<polygon fill="#67CE84" points="301,272 301,275.6 303.7,272 	"/>
	<rect x="301" y="239" fill="#67CE84" width="11" height="13"/>
	<path fill="#67CE84" d="M312,264.3V256h-11v12h5.7l3.9-4.4C310.6,263.6,311,263.8,312,264.3z"/>
	<rect x="301" y="223" fill="#67CE84" width="11" height="12"/>
	<rect x="301" y="206" fill="#67CE84" width="11" height="13"/>
	<rect x="301" y="190" fill="#67CE84" width="11" height="12"/>
	<rect x="301" y="172" fill="#67CE84" width="11" height="14"/>
	<rect x="274" y="272" fill="#67CE84" width="19" height="13"/>
	<rect x="274" y="239" fill="#67CE84" width="19" height="13"/>
	<rect x="274" y="256" fill="#67CE84" width="19" height="12"/>
	<rect x="274" y="223" fill="#67CE84" width="19" height="12"/>
	<rect x="247" y="272" fill="#67CE84" width="19" height="13"/>
	<rect x="247" y="239" fill="#67CE84" width="19" height="13"/>
	<rect x="247" y="256" fill="#67CE84" width="19" height="12"/>
	<rect x="165" y="288" fill="#67CE84" width="19" height="13"/>
	<rect x="193" y="288" fill="#67CE84" width="19" height="13"/>
	<rect x="137" y="288" fill="#67CE84" width="19" height="13"/>
	<rect x="110" y="288" fill="#67CE84" width="19" height="13"/>
	<path fill="#67CE84" d="M102,288h-2.1c-0.4,5-0.6,9-0.8,13h2.9V288z"/>
	<rect x="219" y="288" fill="#67CE84" width="20" height="13"/>
	<polygon fill="#67CE84" points="274,288 274,301 280.4,301 290.6,288 	"/>
	<rect x="247" y="288" fill="#67CE84" width="19" height="13"/>
	<rect x="165" y="306" fill="#67CE84" width="19" height="13"/>
	<rect x="193" y="306" fill="#67CE84" width="19" height="13"/>
	<rect x="137" y="306" fill="#67CE84" width="19" height="13"/>
	<rect x="110" y="306" fill="#67CE84" width="19" height="13"/>
	<path fill="#67CE84" d="M102,306h-3.1c-0.1,2-0.1,4.6-0.1,6.9c0,2,0,4.1,0.1,6.1h3.1V306z"/>
	<rect x="219" y="306" fill="#67CE84" width="20" height="13"/>
	<polygon fill="#67CE84" points="274,306 274,309.8 276.4,306 	"/>
	<rect x="247" y="306" fill="#67CE84" width="19" height="13"/>
	<rect x="165" y="322" fill="#67CE84" width="19" height="13"/>
	<rect x="193" y="322" fill="#67CE84" width="19" height="13"/>
	<rect x="137" y="322" fill="#67CE84" width="19" height="13"/>
	<rect x="110" y="322" fill="#67CE84" width="19" height="13"/>
	<path fill="#67CE84" d="M102,322h-3c0.1,5,0.4,9,0.7,13h2.3V322z"/>
	<rect x="219" y="322" fill="#67CE84" width="20" height="13"/>
	<polygon fill="#67CE84" points="247,322 247,335 253.3,335 263.5,322 	"/>
	<rect x="165" y="338" fill="#67CE84" width="19" height="13"/>
	<rect x="193" y="338" fill="#67CE84" width="19" height="13"/>
	<rect x="137" y="338" fill="#67CE84" width="19" height="13"/>
	<rect x="110" y="338" fill="#67CE84" width="19" height="13"/>
	<path fill="#67CE84" d="M102,338h-2c0.4,5,0.8,9,1.4,13h0.6V338z"/>
	<rect x="219" y="338" fill="#67CE84" width="20" height="13"/>
	<polygon fill="#67CE84" points="247,338 247,344 250.8,338 	"/>
	<rect x="165" y="356" fill="#67CE84" width="19" height="12"/>
	<rect x="193" y="356" fill="#67CE84" width="19" height="12"/>
	<rect x="137" y="356" fill="#67CE84" width="19" height="12"/>
	<rect x="110" y="356" fill="#67CE84" width="19" height="12"/>
	<rect x="219" y="356" fill="#67CE84" width="20" height="12"/>
	<rect x="165" y="374" fill="#67CE84" width="19" height="13"/>
	<rect x="193" y="374" fill="#67CE84" width="19" height="13"/>
	<rect x="137" y="374" fill="#67CE84" width="19" height="13"/>
	<rect x="110" y="374" fill="#67CE84" width="19" height="13"/>
	<rect x="219" y="374" fill="#67CE84" width="20" height="13"/>
	<polygon fill="#67CE84" points="247,374 247,387 249.7,387 246.4,374 	"/>
	<rect x="165" y="391" fill="#67CE84" width="19" height="13"/>
	<rect x="193" y="391" fill="#67CE84" width="19" height="13"/>
	<rect x="137" y="391" fill="#67CE84" width="19" height="13"/>
	<path fill="#67CE84" d="M129,391h-19.2c1.2,5,2.6,9,4,13H129V391z"/>
	<rect x="219" y="391" fill="#67CE84" width="20" height="13"/>
	<polygon fill="#67CE84" points="247,391 247,404 254.4,404 251,391 	"/>
	<polygon fill="#67CE84" points="512,252 512,239 510.9,239 497,252 	"/>
	<path fill="#67CE84" d="M493,257.4c6-0.2,13.1,2.5,18.1,7.8c0.3,0.3-0.1,0.7,0.9,1V256h-19.1l0.1-0.4V257.4z"/>
	<rect x="521" y="272" fill="#67CE84" width="19" height="13"/>
	<rect x="521" y="239" fill="#67CE84" width="19" height="13"/>
	<rect x="521" y="256" fill="#67CE84" width="19" height="12"/>
	<polygon fill="#67CE84" points="521,235 540,235 540,223 528.8,223 521,229.4 	"/>
	<path fill="#67CE84" d="M531.6,219h8.4v-13h-9.6C532.6,211,533.1,215,531.6,219z"/>
	<path fill="#67CE84" d="M528.2,202H540v-12h-19v4.5c1,1,2.6,2.1,3.8,3.3C526.1,199.2,527.2,201,528.2,202z"/>
	<rect x="547" y="272" fill="#67CE84" width="19" height="13"/>
	<rect x="547" y="256" fill="#67CE84" width="19" height="12"/>
	<path fill="#67CE84" d="M657,285h9.8c-0.4-5-1-9-1.6-13H657V285z"/>
	<path fill="#67CE84" d="M657,252h4.6c-0.9-4-2-9-3.1-13H657V252z"/>
	<path fill="#67CE84" d="M657,268h7.7c-0.7-4-1.4-8-2.3-12H657V268z"/>
	<rect x="629" y="272" fill="#67CE84" width="20" height="13"/>
	<rect x="629" y="239" fill="#67CE84" width="20" height="13"/>
	<rect x="629" y="256" fill="#67CE84" width="20" height="12"/>
	<rect x="629" y="223" fill="#67CE84" width="20" height="12"/>
	<path fill="#67CE84" d="M629,219h20v-12.2c-1-0.4-1.5,0.2-1.6-0.8H629V219z"/>
	<path fill="#67CE84" d="M629,202h16.8c-1.8-4-3.7-8-5.8-12H629V202z"/>
	<path fill="#67CE84" d="M629,186h9.2c-2.2-5-4.4-10-6.8-14H629V186z"/>
	<rect x="602" y="272" fill="#67CE84" width="19" height="13"/>
	<rect x="602" y="239" fill="#67CE84" width="19" height="13"/>
	<rect x="602" y="256" fill="#67CE84" width="19" height="12"/>
	<rect x="602" y="223" fill="#67CE84" width="19" height="12"/>
	<rect x="574" y="272" fill="#67CE84" width="20" height="13"/>
	<rect x="574" y="239" fill="#67CE84" width="20" height="13"/>
	<rect x="574" y="256" fill="#67CE84" width="20" height="12"/>
	<polygon fill="#67CE84" points="512,301 512,294.1 507.7,301 	"/>
	<rect x="521" y="288" fill="#67CE84" width="19" height="13"/>
	<rect x="547" y="288" fill="#67CE84" width="19" height="13"/>
	<path fill="#67CE84" d="M657,301h10.9c-0.2-4-0.4-8-0.8-13H657V301z"/>
	<rect x="629" y="288" fill="#67CE84" width="20" height="13"/>
	<rect x="602" y="288" fill="#67CE84" width="19" height="13"/>
	<rect x="574" y="288" fill="#67CE84" width="20" height="13"/>
	<path fill="#67CE84" d="M526.5,319H540v-13h-19v5.5c0,0.3,0.6,0.8,1,1.1C523.8,314.6,525.3,317,526.5,319z"/>
	<rect x="547" y="306" fill="#67CE84" width="19" height="13"/>
	<path fill="#67CE84" d="M657,319h11.1c0-2,0.1-4.1,0.1-6.1c0-2.3,0-4.9-0.1-6.9H657V319z"/>
	<rect x="629" y="306" fill="#67CE84" width="20" height="13"/>
	<rect x="602" y="306" fill="#67CE84" width="19" height="13"/>
	<rect x="574" y="306" fill="#67CE84" width="20" height="13"/>
	<path fill="#67CE84" d="M529.1,329.7c0.4,1.8,0.4,3.3-0.1,5.3h11v-13h-12C529,325,529.3,327.4,529.1,329.7z"/>
	<rect x="547" y="322" fill="#67CE84" width="19" height="13"/>
	<path fill="#67CE84" d="M657,335h10.3c0.3-4,0.5-8,0.7-13h-11V335z"/>
	<rect x="629" y="322" fill="#67CE84" width="20" height="13"/>
	<rect x="602" y="322" fill="#67CE84" width="19" height="13"/>
	<rect x="574" y="322" fill="#67CE84" width="20" height="13"/>
	<path fill="#67CE84" d="M528.6,351H540v-13h-12.5l-6.4,11.3C523.4,349.3,526,350,528.6,351z"/>
	<rect x="547" y="338" fill="#67CE84" width="19" height="13"/>
	<path fill="#67CE84" d="M657,351h8.6c0.6-4,1-8,1.4-13H657V351z"/>
	<rect x="629" y="338" fill="#67CE84" width="20" height="13"/>
	<rect x="602" y="338" fill="#67CE84" width="19" height="13"/>
	<rect x="574" y="338" fill="#67CE84" width="20" height="13"/>
	<path fill="#67CE84" d="M539.3,358.8c0.3,0.3,0.7,0.3,0.7,0.6V356h-3.9C537.3,356,538.3,357.7,539.3,358.8z"/>
	<rect x="547" y="356" fill="#67CE84" width="19" height="12"/>
	<path fill="#67CE84" d="M657,368h5.8c0.8-4,1.6-8,2.2-12h-8V368z"/>
	<rect x="629" y="356" fill="#67CE84" width="20" height="12"/>
	<rect x="602" y="356" fill="#67CE84" width="19" height="12"/>
	<rect x="574" y="356" fill="#67CE84" width="20" height="12"/>
	<rect x="547" y="374" fill="#67CE84" width="19" height="13"/>
	<path fill="#67CE84" d="M657,387h1.5c1.1-5,2.2-9,3.1-13H657V387z"/>
	<rect x="629" y="374" fill="#67CE84" width="20" height="13"/>
	<rect x="602" y="374" fill="#67CE84" width="19" height="13"/>
	<rect x="574" y="374" fill="#67CE84" width="20" height="13"/>
	<polygon fill="#67CE84" points="540,404 540,391 540.1,391 532.8,404 	"/>
	<rect x="547" y="391" fill="#67CE84" width="19" height="13"/>
	<path fill="#67CE84" d="M657,394.4c0-1-0.1-2.4,0.2-3.4H657V394.4z"/>
	<rect x="629" y="391" fill="#67CE84" width="20" height="13"/>
	<rect x="602" y="391" fill="#67CE84" width="19" height="13"/>
	<rect x="574" y="391" fill="#67CE84" width="20" height="13"/>
	<path fill="#EAA15E" d="M542.9,382.8l-24,19.5c-5.9,4.7-16.8,1.9-24.7-6.2c-0.3,0.5-0.7,1-1.2,1.4c14.4,14.3,23.5,28.4,21,39.1
		l18.7-32.7l7.3-12.8l5.8-10.2c1.8-2.9,1.8-6.5,0.3-10C547.2,375.9,546.1,380.2,542.9,382.8z"/>
	<path fill="#F9BB87" d="M492.9,397.6c-1.1,1.1-1.9,1.9-3.9,2.5v24.5c0,7.2-5.6,12.3-12.8,12.3h-12.1c-29,2-89.2,6.5-106.9,15.1
		c3.1,11,2.9,21.8-2.6,30.6c-2.9,4.6-6.3,9-10.1,12.7l67.3,23.2l-4.1,22.7c71.3-12.2,105.7-102.2,105.7-102.2
		c0.3-0.8,0.5-1.6,0.7-2.4C516.5,426,507.4,411.9,492.9,397.6z"/>
	<path fill="#EAA15E" d="M312,347.8c-7,14.2-13.1,22.9-13.1,22.9s5.1,4.9,13.1,12.9V347.8z"/>
	<path fill="#EAA15E" d="M351.4,437c2.4,5,4.4,9.9,5.7,14.8c17.7-8.6,78-12.8,106.9-14.8H351.4z"/>
	<path fill="#F9BB87" d="M490.2,257.6l2.2-2l0.5-0.4l4.1-3.7l13.9-12.8l10.1-9.3l7.8-7.2l0.2-0.2c1.1-1,2-2.2,2.5-3.5
		c1.5-3.5,1-8.1-1.2-12.8c-0.6-1.3-1.3-2.5-2.2-3.7c-1-1.4-2.1-2.8-3.4-4.2c-1.2-1.2-2.5-2.3-3.8-3.3c-7.7-5.7-16.8-7-21.8-2.7
		l-10.2,9.3v56.8C490,257.7,489.9,257.7,490.2,257.6z"/>
	<path fill="#EAA15E" d="M529.1,329.9c-0.3,2.8-1.5,5.2-3.5,6.9l-24.1,19.5c-3.1,2.5-7.5,2.9-12.5,1.5v14.3c1-0.3,0.7-0.6,1-0.8
		l24-19.5c1.9-1.5,4.3-2.3,7-2.3l6.4-11.2l0.5-0.9c0.5-0.7,0.8-1.5,1-2.3C529.4,333.4,529.4,331.6,529.1,329.9z"/>
	<path fill="#EAA15E" d="M492.9,397.6c0.4-0.4,0.9-0.9,1.2-1.4c-0.2-0.2-0.5-0.4-0.7-0.6c-1.8-2-2.5-4-4.5-6.1v10.7
		C491,399.5,491.9,398.7,492.9,397.6z"/>
	<path fill="#EAA15E" d="M511.7,291.6l-9.3,8c-3.6,2.9-8.4,4-13.4,3.5v8.6l7.5-6.1c2.5-2,5.9-2.7,9.6-2.1l1.5-2.6l4-6.9l3.8-6.6
		c0.8-1.3,1.2-2.7,1.3-4.2C516.1,286.5,514.4,289.4,511.7,291.6z"/>
	<path fill="#64584C" d="M325.4,313.9c-3.9,13.1-9.4,24.7-13.4,34v35.8c12,12.8,29.3,33.4,39.4,53.4h112.7h12.1
		c7.2,0,12.8-5.1,12.8-12.3v-24.5v-10.7c-3-6.6-3-13.4,0-17.4v-14.3c-4-1.3-8.7-4.1-12.5-8.3c-1.1-1.2-2.5-2.4-2.5-3.7v39.7
		c0,6.1-5.6,10.5-11.7,10.5H338c-6.1,0-10-4.4-10-10.5V182.9c0-6.1,4-11.9,10-11.9h124.3c6.1,0,11.7,5.8,11.7,11.9v86l8.5-7.8
		c2-1.6,4.5-2.7,6.5-3.2v-56.8v-39.3c0-7.2-5.6-13.8-12.8-13.8h-152c-7.2,0-12.2,6.6-12.2,13.8v11v12.8v3.7V202v3.7v12.8v3.7V235
		v3.7v12.8v3.7v9.1C316,267.9,334.1,284.6,325.4,313.9z M400.2,424.1c-15.2,0-27.5-4.1-27.5-9c0-5,12.3-9,27.5-9
		c15.2,0,27.5,4,27.5,9C427.7,420,415.3,424.1,400.2,424.1z M384.6,155h31.2c2.1,0,3.8,1.9,3.8,4c0,2.1-1.7,4-3.8,4h-31.2
		c-2.1,0-3.8-1.9-3.8-4C380.8,156.9,382.5,155,384.6,155z"/>
	<path fill="#64584C" d="M474,324.7l15-13v-8.6c-5-0.6-10.5-3.2-14.8-7.7c-0.2-0.3-0.2-0.5-0.2-0.8V324.7z"/>
	<path fill="#5E8FB0" d="M473.4,325.2l0.6-0.5v-30c-8-8.4-7.6-19.7-0.3-25.7l0.3-0.2v-86c0-6.1-5.6-11.9-11.7-11.9H338
		c-6.1,0-10,5.8-10,11.9v202.7c0,6.1,4,10.5,10,10.5h124.3c6.1,0,11.7-4.4,11.7-10.5v-39.7C468,338.1,468.2,329.4,473.4,325.2z
		 M387.1,351c-1.9,0-3.5-1.6-3.5-3.5c0-1.9,1.6-3.5,3.5-3.5h11.7c0,0,0.2,0.1,0.2,0v-11.8c-12-1.7-22-12.5-22-25.5V276
		c0-1.9,1.6-3.5,3.5-3.5c1.9,0,3.5,1.6,3.5,3.5v30.8c0,10.3,8.2,18.8,18.5,18.8c10.3,0,18.5-8.4,18.5-18.8v-32.3
		c0-1.9,1.6-3.5,3.5-3.5c1.9,0,3.5,1.6,3.5,3.5v32.3c0,13-9,23.8-22,25.5V344c0,0-0.3,0-0.3,0h11.7c1.9,0,3.5,1.6,3.5,3.5
		c0,1.9-1.6,3.5-3.5,3.5H387.1z M386.8,263c0-1,0.1-2,0.4-3H401v3H386.8z M418,292h-14v-4h14V292z M402.5,321.6
		c-8.5,0-15.5-6.9-15.5-15.5V298h31v8.2C418,314.7,411.1,321.6,402.5,321.6z M401,270h-14v-3h14V270z M401,274v3h-14v-3H401z
		 M387,281h14v3h-14V281z M401,288v4h-14v-4H401z M404,284v-3h14v3H404z M418,277h-14v-3h14V277z M404,270v-3h14v3H404z M417.7,263
		H404v-3h13.3C417.6,261,417.7,262,417.7,263z M404,247.4c6,0.5,9.6,3.6,12,8.6h-12V247.4z M401,247.5v8.5h-12.5
		C390.8,251,396,248.2,401,247.5z"/>
	<path fill="#776B5F" d="M384.6,163h31.2c2.1,0,3.8-1.9,3.8-4c0-2.1-1.7-4-3.8-4h-31.2c-2.1,0-3.8,1.9-3.8,4
		C380.8,161.1,382.5,163,384.6,163z"/>
	<ellipse fill="#776B5F" cx="400.2" cy="415.1" rx="27.5" ry="9"/>
	<path fill="#F9BB87" d="M496.6,305.7l-7.4,6.1l-15.9,13l-0.6,0.5c-5.2,4.2-4.7,12.8,0.6,20.7c0.9,1.3,1.8,2.5,2.9,3.7
		c3.9,4.2,8.5,7,13,8.3c4.7,1.4,9.3,1,12.4-1.5l24-19.5c2.1-1.7,3.2-4.1,3.5-6.9c0.3-2.3-0.1-4.9-1-7.6c-0.4-1.2-0.9-2.3-1.5-3.5
		c-1.2-2.2-2.7-4.3-4.5-6.3c-0.3-0.3-0.6-0.6-1-1c-4.5-4.5-9.9-7.2-14.8-7.9C502.5,303,499.1,303.7,496.6,305.7z M493.9,351.7
		c-2.7-1.4-3.6-1-11.2-9.1c-6.1-6.5-7.1-10.6-7.1-10.6l6.7-5.4c4.8-3.9,12.8-2.6,17.8,2.9c5,5.4,5.3,13,0.5,16.8L493.9,351.7z"/>
	<path fill="#FFE2CA" d="M500.1,329.4c-5.1-5.4-13-6.7-17.8-2.9l-6.7,5.4c0,0,1,4.1,7.1,10.6c7.6,8.1,8.5,7.7,11.2,9.1l6.7-5.4
		C505.4,342.4,505.2,334.9,500.1,329.4z"/>
	<path fill="#F9BB87" d="M514,351.8l-24,19.5c-0.3,0.3-0.6,0.5-0.9,0.8c-3.7,3.9-3.6,10.7,0,17.4c1.1,2.1,2.6,4.2,4.4,6.1
		c0.2,0.2,0.4,0.4,0.6,0.6c7.9,8.1,18.9,10.9,24.7,6.2l24-19.5c3.2-2.6,4.2-6.9,3.3-11.7c-0.8-3.8-2.8-8-6.1-11.7
		c-0.3-0.3-0.5-0.6-0.8-0.9c-1-1.1-2.1-2.1-3.2-3c-2.4-2-5-3.5-7.6-4.5c-2.6-1-5.2-1.6-7.5-1.5C518.4,349.5,515.9,350.2,514,351.8z
		 M518,392.3l-6.7,5.4c-2.7-1.4-3.6-1-11.2-9.1c-6.1-6.5-7.1-10.6-7.1-10.6l6.7-5.4c4.8-3.9,12.8-2.6,17.8,2.9
		C522.6,380.9,522.8,388.5,518,392.3z"/>
	<path fill="#FFE2CA" d="M517.5,375.5c-5.1-5.4-13-6.7-17.8-2.9l-6.7,5.4c0,0,1,4.1,7.1,10.6c7.6,8.1,8.5,7.7,11.2,9.1l6.7-5.4
		C522.8,388.5,522.6,380.9,517.5,375.5z"/>
	<path fill="#F9BB87" d="M492.5,257.4c-0.7,0-1.4,0.1-2.2,0.2c-0.4,0.1-0.8,0.1-1.1,0.2c-2.6,0.5-5,1.6-7,3.2l-8.9,7.8L473,269
		c-7.4,6-7.2,17.3,0.3,25.7c0.2,0.3,0.4,0.5,0.7,0.8c4.3,4.4,9.8,7,15.2,7.7c4.9,0.6,9.7-0.5,13.3-3.5l9.2-8
		c2.7-2.2,4.4-5.1,5.1-8.4c1.1-5.4-0.6-11.8-5.1-17c-0.3-0.4-0.6-0.7-0.9-1C505.6,259.9,498.8,257.2,492.5,257.4z M490.2,298.6
		c-2.5-1.5-3.3-1.3-10.8-9.4c-6.1-6.6-7.3-10.5-7.3-10.5l5.6-4.5c4-3.2,11.2-1.3,16.2,4.2c5,5.5,5.8,12.5,1.8,15.7L490.2,298.6z"/>
	<path fill="#F9BB87" d="M344.5,495.5c3.9-3.6,7.2-8,10.1-12.6c5.5-8.8,5.6-19.4,2.6-30.4c-1.4-4.9-3.3-9.8-5.7-14.8
		c-10.1-20.7-28-41.3-40.2-54.1c-7.7-8-13.1-12.9-13.1-12.9s6.1-8.7,13.1-22.9c4.6-9.3,9.5-20.9,13.4-34c8.7-29.2-9.1-46-13.4-49.6
		c-0.6-0.5-0.9-0.7-0.9-0.7l-3.5,4.4l-3,3.7l-3.1,3.9l-10,12.6L280.4,301l-4,5l-3,3.8l-9.9,12.4L253.3,335l-2.6,3.2l-4.6,5.8
		l-5.8,7.3l6,22.6l3.4,12.8l1.3,4.8l3.4,12.8l12.3,46.8c0,0,4.3,11.1,10.8,22.8l0.4-1.2L344.5,495.5z M307.3,267.3
		c3.8,2.7,5.9,5.8,3.4,10.2l-6.1,10.6c-3.1,5.4-10,7.2-15.3,4.1c-0.4-0.2-0.7-0.5-1.1-0.8L307.3,267.3z"/>
	<path fill="#FFE2CA" d="M304.5,288l6.1-10.6c2.6-4.4,0.4-7.5-3.4-10.2l-19.2,24.1c0.3,0.3,0.7,0.5,1.1,0.8
		C294.5,295.2,301.4,293.4,304.5,288z"/>
	<path fill="#FFE2CA" d="M495.8,294.1c4-3.2,3.1-10.2-1.8-15.7c-5-5.5-12.3-7.4-16.2-4.2l-5.6,4.5c0,0,1.2,3.9,7.3,10.5
		c7.5,8.2,8.3,7.9,10.8,9.4L495.8,294.1z"/>
	<rect x="387" y="267" fill="#FFFFFF" width="14" height="3"/>
	<rect x="387" y="281" fill="#FFFFFF" width="14" height="3"/>
	<rect x="387" y="288" fill="#FFFFFF" width="14" height="4"/>
	<path fill="#FFFFFF" d="M416,256c-2.3-5-6-8-12-8.6v8.6H416z"/>
	<rect x="404" y="288" fill="#FFFFFF" width="14" height="4"/>
	<path fill="#FFFFFF" d="M401,260h-13.9c-0.2,1-0.4,2-0.4,3H401V260z"/>
	<path fill="#FFFFFF" d="M418,298h-31v8.2c0,8.5,7,15.5,15.5,15.5c8.5,0,15.5-6.9,15.5-15.5V298z"/>
	<path fill="#FFFFFF" d="M388.5,256H401v-8.5C396,248.2,390.8,251,388.5,256z"/>
	<rect x="387" y="274" fill="#FFFFFF" width="14" height="3"/>
	<rect x="404" y="267" fill="#FFFFFF" width="14" height="3"/>
	<path fill="#FFFFFF" d="M404,260v3h13.7c0-1-0.1-2-0.4-3H404z"/>
	<rect x="404" y="274" fill="#FFFFFF" width="14" height="3"/>
	<rect x="404" y="281" fill="#FFFFFF" width="14" height="3"/>
	<path fill="#FFFFFF" d="M420.9,347.5c0-1.9-1.6-3.5-3.5-3.5h-11.7c0,0,0.3,0.1,0.3,0v-11.8c13-1.7,22-12.5,22-25.5v-32.3
		c0-1.9-1.6-3.5-3.5-3.5c-1.9,0-3.5,1.6-3.5,3.5v32.3c0,10.3-8.2,18.8-18.5,18.8c-10.3,0-18.5-8.4-18.5-18.8V276
		c0-1.9-1.6-3.5-3.5-3.5c-1.9,0-3.5,1.6-3.5,3.5v30.8c0,13,10,23.8,22,25.5V344c0,0-0.2,0-0.2,0h-11.7c-1.9,0-3.5,1.6-3.5,3.5
		c0,1.9,1.6,3.5,3.5,3.5h30.3C419.3,351,420.9,349.4,420.9,347.5z"/>
	<polygon fill="#F9BB87" points="407.6,541.6 407.6,541.4 411.7,518.6 344.5,495.5 277.9,472.5 277.5,473.7 271.3,493 	"/>
	<polygon fill="#FFFFFF" points="407.6,541.6 271.3,493 265.9,491 260.6,505.2 410.1,559 414.1,544 	"/>
	<path fill="#E86843" d="M415.1,560.8l-5-1.8l-149.5-53.8l-7.7-2.8l-19.4,52.3c43.6,27.1,94.9,42.7,150,42.7c8,0,15.8-0.3,23.6-1
		L415.1,560.8z"/>
	<path fill="#67CE84" d="M379.4,80.8c23.7-9,49.5-2.4,66.1,14.8l10.1-10.1c-20.2-21.7-52.3-30.2-81.7-19
		c-11.2,4.2-20.8,10.8-28.4,19l10.8,10.8C362.5,89.6,370.3,84.3,379.4,80.8z"/>
	<path fill="#67CE84" d="M383.6,92c-7.4,2.8-13.8,7.3-18.7,12.8l9.7,9.7c3.6-4.2,8.3-7.6,13.9-9.7c13.9-5.3,29-0.9,38.1,9.7l9.7-9.7
		C423.4,90.5,402.6,84.8,383.6,92z"/>
	<path fill="#67CE84" d="M393.3,117.6c-3.7,1.4-6.8,3.8-9,6.7l6.7,6.7c1.1-2.2,3-4,5.5-4.9c5.1-1.9,10.8,0.5,13,5.4l7.3-7.3
		C411.4,117.3,401.9,114.3,393.3,117.6z"/>
</g>
<rect x="93.2" y="623" fill="none" width="580.7" height="105.7"/>
<text transform="matrix(1 0 0 1 143.9068 676.4072)" font-family="'SansSerifBldFLF'" font-size="72.1985">AUDIO STORY</text>
</svg>
