<?xml version="1.0" encoding="utf-8"?>
<!-- Generator: Adobe Illustrator 18.1.0, SVG Export Plug-In . SVG Version: 6.00 Build 0)  -->
<svg version="1.1" id="Layer_1" xmlns="http://www.w3.org/2000/svg" xmlns:xlink="http://www.w3.org/1999/xlink" x="0px" y="0px"
	 viewBox="0 0 770 700" enable-background="new 0 0 770 700" xml:space="preserve">
<rect x="-0.6" y="-1.2" fill="#E4E4E6" width="771.5" height="702.3"/>
<rect x="105.3" y="624.4" fill="none" width="582.1" height="106"/>
<text transform="matrix(1 0 0 1 279.6204 677.9118)" font-family="'SansSerifBldFLF'" font-size="72.3753">NOTES</text>
<g>
	<defs>
		<ellipse id="SVGID_1_" cx="396.3" cy="297.4" rx="284.5" ry="268.9"/>
	</defs>
	<clipPath id="SVGID_2_">
		<use xlink:href="#SVGID_1_"  overflow="visible"/>
	</clipPath>
	<rect x="17" y="-61.1" clip-path="url(#SVGID_2_)" fill="#79C9CA" width="758.7" height="716.9"/>
	<path clip-path="url(#SVGID_2_)" fill="#77A5A5" d="M1036.3,852.5c0,0-27-28.4-27-28.4c1.1-2.8,1.7-5.7,1.9-8.7
		c0.4-6.6,1.6-15.9-10.5-27.6c0,0-31.9-33.6-31.9-33.6c2.1-11,0.1-21.5-8.2-29.6c0,0-35.7-37.5-38.3-40.4c1-19.5-7.2-22.1-22.8-39.8
		c5-5.4,7.4-12.6,6.7-19.8c-7.9-72.4-6.3-71.1-13-77.7c-1-1.2-418.3-346.7-419-347.3l-4.8-1.9c-11.4,107.6-8.8,18.8-9.4,18.3
		c-9.1-10.8-10.4-20.3-10.4-20.3c-14.9,53-46.2,235.7-30.3,11.8l0,0c-3.7,16.6,4.7-18,9.3-12.9l-2.6-0.1
		c-17.3-0.9-32,11.6-32.9,27.9c-0.9,17,4,21,16.6,34.1l-37.6-2c-17.3-0.9-32,11.6-32.9,27.9c-0.9,16.3,3,20,16.6,34l-32.3-1.7
		c-17.3-0.9-32,11.6-32.9,27.9c-0.9,16.8,3.8,20.7,16.6,34l-26-1.4c-17.3-0.9-32,11.6-32.9,27.9c-0.2,4.2-1.7,15.6,8.8,25.8
		c0.4,0.5,427,449.4,428,450.4c6.3,7.2,13.7,12,24.2,12.6c13.4,0.7,291.3,15.7,304.6,16.4c17.3,0.9,32-11.6,32.9-27.9
		C1047.2,873.2,1048.2,864,1036.3,852.5z"/>
	<g display="none" clip-path="url(#SVGID_2_)">
		<path display="inline" fill="#FA7D69" d="M797.3-75.5c0,16.4-14,29.6-31.3,29.6H460.9c-17.3,0-31.3-13.3-31.3-29.6V-79
			c0-16.4,14-29.6,31.3-29.6H766c17.3,0,31.3,13.3,31.3,29.6V-75.5z"/>
		<path display="inline" fill="#E15046" d="M613.4-108.6v62.7H766c17.3,0,31.3-13.3,31.3-29.6V-79c0-16.4-14-29.6-31.3-29.6H613.4z"
			/>
		<path display="inline" fill="#6EC8F0" d="M758.3-138.2c0,16.4-14,29.6-31.3,29.6H499.9c-17.3,0-31.3-13.3-31.3-29.6v-3.5
			c0-16.4,14-29.6,31.3-29.6H727c17.3,0,31.3,13.3,31.3,29.6V-138.2z"/>
		<path display="inline" fill="#00AADC" d="M613.4-171.3v62.7H727c17.3,0,31.3-13.3,31.3-29.6v-3.5c0-16.4-14-29.6-31.3-29.6H613.4z
			"/>
		<path display="inline" fill="#FA7D69" d="M713-200.9c0,16.4-14,29.6-31.3,29.6H545.2c-17.3,0-31.3-13.3-31.3-29.6v-3.5
			c0-16.4,14-29.6,31.3-29.6h136.5c17.3,0,31.3,13.3,31.3,29.6V-200.9z"/>
		<path display="inline" fill="#E15046" d="M613.4-234.1v62.7h68.2c17.3,0,31.3-13.3,31.3-29.6v-3.5c0-16.4-14-29.6-31.3-29.6H613.4
			z"/>
		<path fill="#FA7D69" d="M594.6-389.3c1.4-8.6,9.3-15,18.5-15h0.5c9.2,0,17.1,6.4,18.5,15l10.8,66.2c1.2,7.6-1.1,15.3-6.4,21.1
			c-5.3,5.8-13,9.2-21.1,9.2h0c-9.2,0-17.9-3.8-23.9-10.4c-6-6.6-8.6-15.3-7.2-23.9L594.6-389.3z"/>
		<path fill="#E15046" d="M613.7-404.3v111.5l0,0c0.6,0,1.2,0.1,1.8,0.1h0c8.1,0,15.8-3.4,21.1-9.2c5.3-5.8,7.6-13.6,6.4-21.1
			l-10.8-66.2C630.8-397.9,623-404.3,613.7-404.3L613.7-404.3z"/>
		<path display="inline" fill="#6EC8F0" d="M662.4-263.7c0,16.4-14,29.6-31.3,29.6h-35.3c-17.3,0-31.3-13.3-31.3-29.6v-3.5
			c0-16.4,14-29.6,31.3-29.6h35.3c17.3,0,31.3,13.3,31.3,29.6V-263.7z"/>
		<path display="inline" fill="#00AADC" d="M613.4-296.8v62.7h17.7c17.3,0,31.3-13.3,31.3-29.6v-3.5c0-16.4-14-29.6-31.3-29.6H613.4
			z"/>
	</g>
	<rect x="339.1" y="-322.8" display="none" clip-path="url(#SVGID_2_)" fill="#6EC8F0" width="548.7" height="87.5"/>
	<rect x="423.3" y="-211.1" display="none" clip-path="url(#SVGID_2_)" fill="#6EC8F0" width="380.3" height="60.6"/>
	<rect x="506.3" y="-130.7" display="none" clip-path="url(#SVGID_2_)" fill="#6EC8F0" width="214.2" height="40.9"/>
	<rect x="545.6" y="-74.7" display="none" clip-path="url(#SVGID_2_)" fill="#6EC8F0" width="135.6" height="34.8"/>
</g>
<g>
	<g>
		<g>
			<rect x="238.4" y="127.5" fill="#F8FBFA" width="327.4" height="365.9"/>
			<rect x="238.8" y="419.4" fill="#90B17E" width="327" height="4.2"/>
			<rect x="238.8" y="468.1" fill="#90B17E" width="327" height="4.2"/>
			<rect x="238.8" y="370" fill="#90B17E" width="327" height="4.2"/>
			<rect x="238.8" y="320.7" fill="#90B17E" width="327" height="4.2"/>
			<rect x="238.8" y="271.3" fill="#90B17E" width="327" height="4.2"/>
			<rect x="238.8" y="222" fill="#90B17E" width="327" height="4.2"/>
			<rect x="238.8" y="172.7" fill="#90B17E" width="327" height="4.2"/>
			<rect x="293.4" y="127.5" fill="#3C8989" width="4.2" height="365.9"/>
		</g>
	</g>
</g>
</svg>
