<?xml version="1.0" encoding="utf-8"?>
<!-- Generator: Adobe Illustrator 18.1.0, SVG Export Plug-In . SVG Version: 6.00 Build 0)  -->
<svg version="1.1" id="Layer_1" xmlns="http://www.w3.org/2000/svg" xmlns:xlink="http://www.w3.org/1999/xlink" x="0px" y="0px"
	 viewBox="0 0 770 700" enable-background="new 0 0 770 700" xml:space="preserve">
<rect x="-0.6" y="0" fill="#F5F0D5" width="770.6" height="701.6"/>
<ellipse fill="none" cx="403.3" cy="295.4" rx="303.7" ry="285.1"/>
<rect x="94" y="628.3" fill="none" width="581.4" height="105.9"/>
<text transform="matrix(1 0 0 1 133.4262 681.8477)" font-family="'SansSerifBldFLF'" font-size="72.2954">PHOTO STORY</text>
<g>
	<path fill="#FEC00F" d="M99.6,316c0,157.4,127.6,285,285.1,285c157.4,0,285.1-127.6,285.1-285c0-157.4-127.6-285.1-285.1-285.1
		C227.3,30.9,99.6,158.5,99.6,316z"/>
	<path fill="#F99B1C" d="M663.7,374.3L523,233.6c-3.3-6-9.6-10.2-17-10.2h-25.2l-27.6-35.2h-87.7l-27.6,35.2h-32l-5.3-5.3
		c-0.9-2-2.8-3.5-5.2-3.5h-37.9c-3.1,0-5.6,2.5-5.6,5.6v2.8c0,0.1,0,0.2,0,0.3h-5.2c-3.7,0-7.2,1.1-10.1,2.9c0,0,0,0,0,0
		c-0.1,0.1-0.2,0.1-0.3,0.2c-0.3,0.2-0.7,0.5-1,0.7c-0.6,0.4-1.2,0.9-1.7,1.4c-0.2,0.2-0.5,0.4-0.7,0.7c-0.7,0.7-1.3,1.5-1.9,2.3
		c-0.2,0.3-0.4,0.6-0.6,0.9c-0.5,0.8-1,1.6-1.3,2.5c-0.1,0.1-0.2,0.3-0.2,0.4c-0.4,1-0.7,2.1-1,3.2c-0.1,0.3-0.1,0.5-0.2,0.8
		c-0.2,1.1-0.4,2.3-0.4,3.5v169.7c0,6.1,2.9,11.4,7.2,15L407.1,600C534.4,590.1,638.3,496.6,663.7,374.3z"/>
	<g>
		<g>
			<g>
				<path fill="#0E303F" d="M506,223.4h-25.2l-27.6-35.2h-87.7l-27.6,35.2h-91.2c-10.7,0-19.4,8.7-19.4,19.4v169.7
					c0,10.7,8.7,19.4,19.4,19.4H506c10.7,0,19.4-8.7,19.4-19.4V242.8C525.4,232.1,516.7,223.4,506,223.4z"/>
				<path fill="#FFFFFF" d="M478.7,327.6c0,38.3-31.1,69.4-69.4,69.4c-38.3,0-69.4-31.1-69.4-69.4c0-38.3,31.1-69.4,69.4-69.4
					C447.7,258.2,478.7,289.3,478.7,327.6z"/>
				<path fill="#103754" d="M469.4,327.6c0,33.2-26.9,60.1-60.1,60.1c-33.2,0-60-26.9-60-60.1c0-33.2,26.9-60,60-60
					C442.5,267.5,469.4,294.4,469.4,327.6z"/>
				<path fill="#A6DAE9" d="M453.9,327.6c0,24.6-20,44.6-44.6,44.6c-24.6,0-44.6-20-44.6-44.6c0-24.6,20-44.6,44.6-44.6
					C434,283,453.9,302.9,453.9,327.6z"/>
				<path fill="#FFFFFF" d="M411.6,309.4c0,8.7-7.1,15.8-15.8,15.8c-8.7,0-15.8-7.1-15.8-15.8c0-8.7,7.1-15.8,15.8-15.8
					C404.5,293.6,411.6,300.7,411.6,309.4z"/>
				<path fill="#FFFFFF" d="M388.5,334c0,4.9-4,8.8-8.8,8.8c-4.9,0-8.8-4-8.8-8.8c0-4.9,4-8.8,8.8-8.8
					C384.5,325.1,388.5,329.1,388.5,334z"/>
				<path fill="#2C5871" d="M253.7,236.6c-7.4,0-13.9-4.2-17.1-10.4c-5.6,3.4-9.3,9.5-9.3,16.5v169.7c0,10.7,8.7,19.4,19.4,19.4H301
					V236.6H253.7z"/>
				<path fill="#2C5871" d="M301,223c0,3.1-2.5,5.6-5.6,5.6h-37.9c-3.1,0-5.6-2.5-5.6-5.6v-2.8c0-3.1,2.5-5.6,5.6-5.6h37.9
					c3.1,0,5.6,2.5,5.6,5.6V223z"/>
				<path fill="#FFFFFF" d="M450.8,212.4c0,3.2-2.6,5.8-5.8,5.8h-72.6c-3.2,0-5.8-2.6-5.8-5.8v-11.6c0-3.2,2.6-5.8,5.8-5.8H445
					c3.2,0,5.8,2.6,5.8,5.8V212.4z"/>
			</g>
			<polygon fill="#FFFFFF" points="486.7,133.2 482.1,161.2 454.1,165.8 482.1,170.4 486.7,198.5 491.3,170.4 519.4,165.8 
				491.3,161.2 			"/>
			<polygon fill="#FFFFFF" points="441.8,120.9 439.4,135.5 424.9,137.8 439.4,140.2 441.8,154.8 444.2,140.2 458.8,137.8 
				444.2,135.5 			"/>
		</g>
	</g>
</g>
</svg>
