<?xml version="1.0" encoding="utf-8"?>
<!-- Generator: Adobe Illustrator 18.1.0, SVG Export Plug-In . SVG Version: 6.00 Build 0)  -->
<svg version="1.1" id="Layer_1" xmlns="http://www.w3.org/2000/svg" xmlns:xlink="http://www.w3.org/1999/xlink" x="0px" y="0px"
	 viewBox="0 0 770 700" enable-background="new 0 0 770 700" xml:space="preserve">
<g>
	<rect x="-1.7" y="-2.8" fill="#8991C0" width="771.7" height="702.5"/>
	<g>
		<defs>
			<ellipse id="SVGID_1_" cx="384.2" cy="312.4" rx="286" ry="271.3"/>
		</defs>
		<clipPath id="SVGID_2_">
			<use xlink:href="#SVGID_1_"  overflow="visible"/>
		</clipPath>
		<rect x="2.8" y="-49.3" clip-path="url(#SVGID_2_)" fill="#458085" width="762.7" height="723.3"/>
		<path clip-path="url(#SVGID_2_)" fill="#395F60" d="M-207.8,998.7c0,0,24.8-21.1,30.6-26.1c0.7-0.6,1.7-0.9,2.7-0.7
			c2.9,0.7,5.9,1,9,1c7.8,0,18.8,0.7,31.9-11.4c0,0,30.7-26.1,36.7-31.2c0.7-0.6,1.5-0.8,2.4-0.7c12.6,1.2,24.3-1.4,33.1-9.5
			c0,0,42-35.9,45.2-38.6c23.1,0,25.6-7.9,45.5-23.8c6.7,4.5,15.4,6.4,23.8,5.3c84.9-11.2,83.5-9.6,90.9-16.3
			c1.4-1.1,382.7-416,383.3-416.7l2-4.7c-127.5-5.4-23.2-7.4-22.1-8c4.1-3.1,8.1-5.4,11.6-7c2.8-1.3,2.3-5.5-0.8-6
			c-48.6-7.6-17.6-8.1-7.4-13.4c5.5-2.8-83.2-14,4.1-12.8l0,0c-19.9-2.6,21.5,3.6,15.9,8.2v-2.4c0-16.5-15.7-29.9-35-29.9
			c-20.1,0-24.5,4.9-39.1,17.5l0-35.9c0-16.5-15.7-29.9-35-29.9c-19.3,0-23.4,3.9-39.1,17.5l0-30.8c0-16.5-15.7-29.9-35-29.9
			c-19.9,0-24.2,4.6-39.1,17.5l0-24.8c0-16.5-15.7-29.9-35-29.9c-4.9,0-18.5-0.9-29.9,9.7c-0.6,0.4-503.4,429.5-504.5,430.5
			c-8.1,6.4-13.3,13.7-13.3,23.7c0,12.8,0,278.1,0,290.8c0,16.5,15.7,29.9,35,29.9C-231.6,1010.1-220.7,1010.6-207.8,998.7z"/>
	</g>
	<ellipse fill="none" cx="397.9" cy="293" rx="304.1" ry="285.5"/>
	<rect x="93" y="626.4" fill="none" width="582.2" height="106"/>
	<text transform="matrix(1 0 0 1 147.2544 679.9932)" font-family="'SansSerifBldFLF'" font-size="72.3939">VIDEO STORY</text>
	<g>
		<g>
			<g>
				<path fill="#F36C36" d="M631,275.8c-23.3,3.1-46.5,3.1-69.8,0c-4-18-4-36,0-53.9c23.3-3.1,46.5-3.1,69.8,0
					C634.9,239.9,634.9,257.8,631,275.8z"/>
				<path fill="#DC6231" d="M561.2,275.8c23.3,3.1,46.5,3.1,69.8,0c2-9,3-18,3-27.1h-75.7C558.2,257.8,559.2,266.8,561.2,275.8z"/>
				<path fill="#FFFFFF" d="M610.3,247.3c1.4,0.9,1.4,2.3,0,3.1l-20.2,12.7c-1.4,0.9-2.5,0.2-2.5-1.6v-25.4c0-1.7,1.1-2.4,2.5-1.6
					L610.3,247.3z"/>
				<path fill="#DCE4E7" d="M587.7,261.5c0,1.7,1.1,2.4,2.5,1.6l20.2-12.7c0.7-0.5,1.1-1.1,1-1.7h-23.7V261.5z"/>
			</g>
		</g>
		<g>
			<g>
				<path fill="#DC6231" d="M176.6,333.9c23.3,3.1,46.5,3.1,69.8,0c2-9,3-18,3-27.1h-75.7C173.6,315.9,174.6,324.9,176.6,333.9z"/>
				<path fill="#FFFFFF" d="M225.8,305.4c1.4,0.9,1.4,2.3,0,3.1l-20.2,12.7c-1.4,0.9-2.5,0.2-2.5-1.6v-25.4c0-1.7,1.1-2.4,2.5-1.6
					L225.8,305.4z"/>
				<path fill="#DCE4E7" d="M203.1,319.6c0,1.7,1.1,2.4,2.5,1.6l20.2-12.7c0.7-0.5,1.1-1.1,1-1.7h-23.7V319.6z"/>
				<path fill="#F36C36" d="M246.4,333.9c-23.3,3.1-46.5,3.1-69.8,0c-3.9-18-3.9-36,0-53.9c23.3-3.1,46.5-3.1,69.8,0
					C250.4,298,250.4,315.9,246.4,333.9z"/>
			</g>
		</g>
		<g>
			<rect x="199.7" y="200.1" fill="#0E303F" width="375.3" height="186.1"/>
			<rect x="199.7" y="381.8" fill="#FFFFFF" width="375.2" height="41.1"/>
			<rect x="229.9" y="399.6" fill="#CDD5D8" width="286.8" height="5.4"/>
			<rect x="229.9" y="399.6" fill="#F36C36" width="92.7" height="5.4"/>
			<g>
				<path fill="#596273" d="M210.9,409.4c-0.8,0-1.4-0.6-1.4-1.5v-11.4c0-0.9,0.6-1.5,1.4-1.5c0.3,0,0.6,0.1,0.9,0.2l9.8,5.7
					c0.5,0.3,0.8,0.8,0.8,1.3c0,0.5-0.3,1-0.8,1.3l-9.8,5.7C211.5,409.3,211.2,409.4,210.9,409.4L210.9,409.4z M210.9,396.3
					c0,0,0,0.1,0,0.2v11.4c0,0.1,0,0.2,0,0.2c0,0,0.1,0,0.2-0.1l9.8-5.7c0.1-0.1,0.1-0.1,0.2-0.1c0,0-0.1-0.1-0.2-0.1l-9.8-5.7
					C211,396.3,211,396.3,210.9,396.3L210.9,396.3z"/>
			</g>
			<g>
				<g>
					<g>
						<rect x="537.8" y="394.5" fill="#596273" width="1.6" height="15.6"/>
					</g>
				</g>
				<rect x="533.9" y="397.7" fill="#596273" width="1.6" height="12.4"/>
				<polygon fill="#596273" points="531.6,410.1 531.6,400.8 530,400.8 530,410.1 				"/>
				<rect x="526.1" y="403.9" fill="#596273" width="1.6" height="6.2"/>
			</g>
			<g>
				<g>
					<path fill="#596273" d="M563,410.1h-14.2c-0.4,0-0.6-0.3-0.6-0.7v-14.2c0-0.4,0.3-0.7,0.6-0.7h7c0.4,0,0.7,0.3,0.7,0.7
						c0,0.4-0.3,0.7-0.7,0.7h-6.4v12.9h12.9v-6.4c0-0.4,0.3-0.7,0.6-0.7c0.4,0,0.6,0.3,0.6,0.7v7C563.7,409.8,563.4,410.1,563,410.1
						L563,410.1z"/>
				</g>
				<g>
					<g>
						<path fill="#596273" d="M563,399.7c-0.4,0-0.6-0.3-0.6-0.7v-3.2l-3.2,0c-0.4,0-0.7-0.3-0.7-0.7c0-0.4,0.3-0.6,0.7-0.6l0,0h3.8
							c0.4,0,0.6,0.3,0.6,0.7v3.8C563.7,399.4,563.4,399.7,563,399.7L563,399.7L563,399.7z"/>
					</g>
					<g>
						<path fill="#596273" d="M556.9,402c-0.2,0-0.3-0.1-0.5-0.2c-0.3-0.2-0.3-0.7,0-0.9l5.6-5.6c0.3-0.3,0.7-0.3,0.9,0
							c0.3,0.3,0.3,0.7,0,0.9l-5.6,5.6C557.3,401.9,557.1,402,556.9,402L556.9,402z"/>
					</g>
				</g>
			</g>
			<g>
				<path fill="#FFFFFF" d="M369.9,311c-2.7,0-4.6-2.2-4.6-5.3v-39c0-3.1,1.9-5.3,4.6-5.3c1,0,2,0.3,3,0.9l33.7,19.5
					c1.8,1,2.9,2.7,2.9,4.4c0,1.7-1,3.3-2.9,4.4l-33.7,19.5C371.9,310.7,370.9,311,369.9,311L369.9,311z M370,266.2
					c0,0.1,0,0.3,0,0.6v39c0,0.3,0,0.5,0.1,0.6c0.1,0,0.3-0.1,0.6-0.2l33.7-19.5c0.3-0.2,0.5-0.3,0.5-0.4c-0.1,0-0.2-0.2-0.5-0.3
					l-33.7-19.5C370.3,266.2,370.1,266.2,370,266.2L370,266.2z"/>
			</g>
		</g>
		<g>
			<g>
				<path fill="#F36C36" d="M555.7,165.1c-14.3,1.9-28.6,1.9-42.9,0c-2.4-11.1-2.4-22.1,0-33.2c14.3-1.9,28.6-1.9,42.9,0
					C558.2,143,558.2,154,555.7,165.1z"/>
				<path fill="#DC6231" d="M512.8,165.1c14.3,1.9,28.6,1.9,42.9,0c1.2-5.5,1.8-11.1,1.8-16.6H511C511,154,511.6,159.5,512.8,165.1z
					"/>
				<path fill="#FFFFFF" d="M543.1,147.6c0.8,0.5,0.8,1.4,0,1.9l-12.4,7.8c-0.8,0.5-1.5,0.1-1.5-1v-15.6c0-1,0.7-1.5,1.5-1
					L543.1,147.6z"/>
				<path fill="#DCE4E7" d="M529.1,156.3c0,1,0.7,1.5,1.5,1l12.4-7.8c0.5-0.3,0.7-0.7,0.6-1h-14.6V156.3z"/>
			</g>
		</g>
		<g>
			<g>
				<path fill="#F36C36" d="M165,397.5c-14.3,1.9-28.6,1.9-42.9,0c-2.4-11.1-2.4-22.1,0-33.2c14.3-1.9,28.6-1.9,42.9,0
					C167.5,375.4,167.5,386.5,165,397.5z"/>
				<path fill="#DC6231" d="M122.1,397.5c14.3,1.9,28.6,1.9,42.9,0c1.2-5.5,1.8-11.1,1.8-16.6h-46.6
					C120.3,386.4,120.9,392,122.1,397.5z"/>
				<path fill="#FFFFFF" d="M152.3,380c0.8,0.5,0.8,1.4,0,1.9l-12.4,7.8c-0.8,0.5-1.5,0.1-1.5-1v-15.6c0-1,0.7-1.5,1.5-1L152.3,380z
					"/>
				<path fill="#DCE4E7" d="M138.4,388.7c0,1,0.7,1.5,1.5,1l12.4-7.8c0.4-0.3,0.6-0.7,0.6-1h-14.6V388.7z"/>
			</g>
		</g>
		<g>
			<g>
				<path fill="#F36C36" d="M403.3,478.9c-14.3,1.9-28.6,1.9-42.9,0c-2.4-11.1-2.4-22.1,0-33.2c14.3-1.9,28.6-1.9,42.9,0
					C405.7,456.7,405.7,467.8,403.3,478.9z"/>
				<path fill="#DC6231" d="M360.3,478.9c14.3,1.9,28.6,1.9,42.9,0c1.2-5.5,1.8-11.1,1.8-16.6h-46.6
					C358.5,467.8,359.1,473.3,360.3,478.9z"/>
				<path fill="#FFFFFF" d="M390.6,461.3c0.8,0.5,0.8,1.4,0,1.9l-12.4,7.8c-0.8,0.5-1.5,0.1-1.5-1v-15.6c0-1,0.7-1.5,1.5-1
					L390.6,461.3z"/>
				<path fill="#DCE4E7" d="M376.6,470.1c0,1,0.7,1.5,1.5,1l12.4-7.8c0.4-0.3,0.6-0.7,0.6-1h-14.6V470.1z"/>
			</g>
		</g>
		<g>
			<g>
				<path fill="#F36C36" d="M310.1,208.2c-19.4,2.6-38.9,2.6-58.3,0c-3.3-15-3.3-30,0-45.1c19.4-2.6,38.9-2.6,58.3,0
					C313.4,178.2,313.4,193.2,310.1,208.2z"/>
				<path fill="#DC6231" d="M251.8,208.2c19.4,2.6,38.9,2.6,58.3,0c1.6-7.5,2.5-15.1,2.5-22.6h-63.3
					C249.3,193.2,250.1,200.7,251.8,208.2z"/>
				<path fill="#FFFFFF" d="M292.9,184.4c1.1,0.7,1.1,1.9,0,2.6L276,197.6c-1.1,0.7-2.1,0.1-2.1-1.3v-21.2c0-1.4,0.9-2,2.1-1.3
					L292.9,184.4z"/>
				<path fill="#DCE4E7" d="M273.9,196.3c0,1.4,0.9,2,2.1,1.3l16.9-10.6c0.6-0.4,0.9-0.9,0.8-1.4h-19.8V196.3z"/>
			</g>
		</g>
		<g>
			<g>
				<path fill="#F36C36" d="M159.5,236.6c-8.6,1.1-17.2,1.1-25.8,0c-1.5-6.6-1.5-13.3,0-19.9c8.6-1.1,17.2-1.1,25.8,0
					C160.9,223.3,160.9,229.9,159.5,236.6z"/>
				<path fill="#DC6231" d="M133.7,236.6c8.6,1.1,17.2,1.1,25.8,0c0.7-3.3,1.1-6.7,1.1-10h-28C132.6,229.9,132.9,233.2,133.7,236.6z
					"/>
				<path fill="#FFFFFF" d="M151.8,226c0.5,0.3,0.5,0.8,0,1.1l-7.5,4.7c-0.5,0.3-0.9,0.1-0.9-0.6v-9.4c0-0.6,0.4-0.9,0.9-0.6
					L151.8,226z"/>
				<path fill="#DCE4E7" d="M143.5,231.3c0,0.6,0.4,0.9,0.9,0.6l7.5-4.7c0.3-0.2,0.4-0.4,0.4-0.6h-8.8V231.3z"/>
			</g>
		</g>
		<g>
			<g>
				<path fill="#F36C36" d="M471.4,500.6c-8.6,1.1-17.2,1.1-25.8,0c-1.5-6.6-1.5-13.3,0-19.9c8.6-1.1,17.2-1.1,25.8,0
					C472.9,487.4,472.9,494,471.4,500.6z"/>
				<path fill="#DC6231" d="M445.6,500.6c8.6,1.1,17.2,1.1,25.8,0c0.7-3.3,1.1-6.7,1.1-10h-28C444.5,494,444.9,497.3,445.6,500.6z"
					/>
				<path fill="#FFFFFF" d="M463.8,490.1c0.5,0.3,0.5,0.8,0,1.2l-7.5,4.7c-0.5,0.3-0.9,0.1-0.9-0.6V486c0-0.6,0.4-0.9,0.9-0.6
					L463.8,490.1z"/>
				<path fill="#DCE4E7" d="M455.4,495.4c0,0.6,0.4,0.9,0.9,0.6l7.5-4.7c0.3-0.2,0.4-0.4,0.4-0.6h-8.8V495.4z"/>
			</g>
		</g>
		<g>
			<g>
				<path fill="#F36C36" d="M433.6,154.9c-8.6,1.1-17.2,1.1-25.8,0c-1.5-6.6-1.5-13.3,0-19.9c8.6-1.1,17.2-1.1,25.8,0
					C435.1,141.6,435.1,148.3,433.6,154.9z"/>
				<path fill="#DC6231" d="M407.9,154.9c8.6,1.1,17.2,1.1,25.8,0c0.7-3.3,1.1-6.7,1.1-10h-28C406.8,148.3,407.1,151.6,407.9,154.9z
					"/>
				<path fill="#FFFFFF" d="M426,144.4c0.5,0.3,0.5,0.8,0,1.2l-7.5,4.7c-0.5,0.3-0.9,0.1-0.9-0.6v-9.4c0-0.6,0.4-0.9,0.9-0.6
					L426,144.4z"/>
				<path fill="#DCE4E7" d="M417.6,149.7c0,0.6,0.4,0.9,0.9,0.6l7.5-4.7c0.3-0.2,0.4-0.4,0.4-0.6h-8.8V149.7z"/>
			</g>
		</g>
	</g>
</g>
</svg>
